<svg version="1" xmlns="http://www.w3.org/2000/svg" width="682.667" height="682.667" viewBox="0 0 512.000000 512.000000"><path d="M232.5 1.6c-1.6.2-8.2 1.1-14.5 2-21.9 3-49 11.1-70 21.1-72 34-124.2 99-141.4 176.4-7.3 32.7-7.5 75.2-.5 107.6C26.3 402.4 97 477.1 189.4 502.4c35 9.6 73.7 11.3 111.6 5 66.2-11.2 129-52.6 167.5-110.4 21.3-32 33.5-63.5 40.2-103.5 2.6-15.6 2.6-59 0-75.3-9.3-57.9-36.2-108.8-78.7-148.7-37.2-35-84.2-57.9-135.5-66.1-9.5-1.5-54.6-2.8-62-1.8zm-65.4 71.3c2.2 2.3 2.9 3.9 2.9 7 0 5.1-2.2 7.5-12.5 13.6-16.4 9.7-36.5 27.2-49 42.5C81.3 169.4 66 212.5 66 256.2c0 30.6 7.3 59.9 22.2 88.9 6.6 12.9 6.9 15.6 2.2 20-3.3 3.1-10.2 3.3-13.3.5-2.7-2.5-11.8-20.3-17-33.3-4.5-11.3-9.1-27.9-11.7-41.8-2.5-13.7-3-46-1-61.2C55.9 164.5 93 108.4 149.3 74.9c9.9-5.9 13.5-6.3 17.8-2zM153 135.5c3.6 1.9 5 4.3 5 8.9 0 3-1 4.7-6.5 10.7-22.1 24-34.2 48.8-39.1 79.6-1.3 8.4-1.5 14.4-1.1 26.8.9 23.2 5.2 40.4 15.4 60.4 6.3 12.4 6.7 15.9 2.4 20.2-3.3 3.3-7.5 3.8-11.9 1.5-5.9-3-17.9-30.6-22.6-51.8-11.7-52.2 3.6-109.1 39.6-147.6 9.7-10.3 12.8-11.8 18.8-8.7zm273.5-.3c4.7 2.1 18 25.4 25.8 45.4 4.1 10.4 8.8 27.7 11.2 40.9 2.2 11.9 3.1 43 1.6 56.4-5.3 48.3-26.6 92.7-61.1 127.1-17.4 17.5-43.9 36-51.5 36-4.7 0-9.5-4.4-9.5-8.9 0-5.4 2.1-8 10.3-12.9 33.4-19.9 62.4-53 77.3-88.3 24.5-58.1 19.7-121.2-13.5-175.8-6.2-10.2-6.4-13-1.7-17.7 3.6-3.6 6.7-4.2 11.1-2.2zM391.2 162c4.6 3.6 14.3 21.4 20.1 37 12.6 34 13.2 74.4 1.5 109.5-8.9 26.6-24.1 50-45.1 69.2-3.9 3.6-5.3 4.3-8.8 4.3-5.5 0-9.9-4.2-9.9-9.5 0-3.2 1.1-4.7 9-13 24.3-25.6 37.4-52.1 42.1-85.4 1.8-12.8.6-37.1-2.4-50.1-4-16.8-8.6-27.8-20.9-49.4-2.1-3.6-2.2-5.9-.7-8.9 2.9-5.7 10.3-7.5 15.1-3.7zm-209.3 12.5c3.8 3.7 3.5 9.2-.7 14.2-5.5 6.5-14 19.7-16.7 25.7-1.4 3.2-3.8 9.7-5.2 14.5-2.5 8-2.7 9.9-2.7 27.1 0 17.3.2 19.1 2.7 27.4 1.5 4.9 4.8 12.9 7.2 17.8 4.7 9.3 5.2 11.5 3.4 15.1-2.8 5.4-10 7.4-14.6 4.2-5.1-3.6-14-24-17.5-40.4-2.9-13.3-2.9-34.8-.1-48.1 2.6-12 7.7-25.5 13.3-35.4 5.4-9.4 16.3-23.4 19.3-24.6 3.4-1.5 8.8-.3 11.6 2.5zm171.9 12c3 2.2 9.5 13.5 13.7 23.6 12.5 30.8 12.1 63.8-1.1 94.5-4.6 10.6-8 13.8-13.8 13.1-2.8-.4-4.9-1.5-6.4-3.3-3.2-3.6-2.6-8.2 2.3-19.8 12-28.6 9.8-61.9-6.1-89.7-5.3-9.2-5.6-12.8-1.5-17 3.4-3.3 9.1-4 12.9-1.4zm-80.4 2.5c12.3 3.1 20.8 8.2 31.2 18.5 7.5 7.4 9.8 10.5 13.2 17.5 5.3 10.9 7.2 19.1 7.2 31 0 11.9-1.9 20.1-7.2 31-3.3 6.9-5.7 10.1-13.2 17.6-7.5 7.5-10.7 9.9-17.6 13.2-10.9 5.3-19.1 7.2-31 7.2-11.9 0-20.1-1.9-31-7.2-7-3.3-10.1-5.7-17.6-13.2-7.5-7.5-9.9-10.6-13.2-17.6-5.3-10.9-7.2-19.1-7.2-31.1 0-19.7 6-34 20.4-48.5 10.2-10.1 18.7-15.2 30.8-18.4 10-2.6 25-2.6 35.2 0zM146.9 352.6c7.4 6.2 3.4 17.3-6.2 17.4-5.5 0-9.7-4.3-9.7-10 0-8.7 9.2-13 15.9-7.4z"/><path d="M243 208.8c-20.8 5.5-36 25.4-36 47.2 0 26.6 22.4 49 49 49 12.6 0 25.3-5.4 34.5-14.5 19.3-19.3 19.3-50.1-.1-69.2-12.7-12.5-30-17-47.4-12.5zm17.9 38.6c6.7 3.5 6.5 14.3-.4 17.4-5.1 2.3-10.7.7-13.1-3.9-4.7-9.1 4.4-18.2 13.5-13.5z"/></svg>